<?xml version="1.0" encoding="UTF-8"?><svg id="a" xmlns="http://www.w3.org/2000/svg" viewBox="0 0 511.26 571.34"><defs><style>.b{stroke-width:0px;}.c{stroke:#fff;stroke-miterlimit:10;stroke-width:8px;}</style></defs><path class="b" d="m142.78,402.87c-.23-.87-.46-1.74-.69-2.61,31.64,27.94,67.27,45.86,110.46,46.27.22,3.8.4,7.05.6,10.54h6.52c.16-3.36.31-6.62.48-10.06,41.25-2.59,77.93-16.14,108.14-44.55,1.13,4.21,2.15,8.02,3.18,11.82l1.49-.41c-.4-1.37-.88-2.72-1.2-4.11-1.18-5.21.24-9.61,4.51-12.85,4.04-3.07,8.59-3.79,13.13-1.38,4.51,2.39,6.83,6.55,6.35,11.55-.3,3.2.49,5.38,2.7,7.47,8.24,7.74,16.41,15.55,24.75,23.46,7.05-4.93,14.2-7.79,22.71-5.76,14.78,3.53,23.17,17.86,18.87,32.69-3.81,13.16-19.23,21.02-32.47,16.55-13.76-4.65-20.8-19.93-15.39-33.67.86-2.18,1.26-3.68-.78-5.61-7.52-7.08-14.85-14.36-22.16-21.66-2.43-2.43-4.88-2.35-8.28-2.39-7.54-.09-11.74,4.51-16.6,8.65-25.2,21.46-54.73,33.02-87.13,37.95-1.81.28-3.61.77-5.42.81-4.39.11-7.43,1.11-8.03,6.46-.28,2.46-2.38,5.41-4.52,6.81-3.16,2.06-3.85,4.38-3.79,7.82.18,9.49.25,19-.08,28.49-.14,3.89,1.26,5.28,4.8,6.59,12.12,4.47,18.71,17.02,16.21,29.8-2.36,12.06-12.66,19.98-25.8,19.82-11.64-.14-22.38-9.3-24.63-20.99-2.22-11.54,4.14-23.83,15.47-27.66,5.4-1.83,6.62-4.36,6.36-9.56-.46-9.31-.03-18.66-.32-27.98-.05-1.76-1.63-3.53-2.7-5.18-2.11-3.27-4.24-6.55-6.6-9.64-1.11-1.45-2.65-3.32-4.22-3.56-37.47-5.57-70.91-20.1-100.02-44.44-2.39-2-5.11-3.76-1.54-6.99,1.88-4.15,3.75-8.3,5.63-12.45Z"/><path class="b" d="m95.38,271.07h-18.61c1.21-7.44,2.21-14.59,3.55-21.68,4.14-21.81,11.62-42.36,23.82-61.01,3.73-5.7,7.97-11.06,12.17-16.43,1.8-2.31,2.45-4.04.91-7.04-1.33-2.59-1.92-6.2-1.28-9.01.75-3.26.21-5.14-2.14-7.31-8.32-7.66-16.46-15.51-24.83-23.44-7.21,5.29-14.58,7.79-22.94,5.59-13.62-3.59-21.96-18.13-18.16-31.56,3.92-13.87,17.89-21.56,31.79-17.49,13.48,3.94,21.52,18.67,16.65,32.14-1.86,5.15-.53,7.78,3.01,10.93,6.97,6.2,13.59,12.78,20.51,19.03,1.15,1.04,3.12,1.84,4.62,1.71,10.43-.89,15.47,2.23,16.48,10.57,1.09,9.01-3.6,14.39-13.76,16.37h10.63c-24.58,29.25-38.5,61.75-42.43,98.63Z"/><path class="b" d="m50.65,277.57h44.63c.01,42.03,11.81,79.49,38.98,112.06-3.22,1.23-6.35,2.11-9.18,3.59-2.89,1.51-5.48,3.61-8.73,5.8-25.32-33.74-38.17-71.94-39.63-114.66-8.4,0-16.51-.14-24.61.16-1.13.04-2.63,2.03-3.21,3.42-4.13,9.85-11.02,16.35-21.88,17.28-13.39,1.15-24.48-7.87-26.66-21.04-2.12-12.76,5.53-25.18,17.45-28.35,13.12-3.49,26.07,3.24,31.04,16.16.59,1.54,1.03,3.15,1.81,5.58Z"/><path class="b" d="m252.69,146.34c-16.62,1.44-33.03,3.81-47.91,11.36-10.76,5.46-20.76,12.44-31.09,18.77-2.36,1.44-2.98,3.12-2.24,6.17,2.55,10.47-5.97,18.77-16.26,15.87-3.37-.95-5.06-.08-7.02,2.44-14.38,18.46-22.45,39.51-25.96,62.46-.38,2.46-.76,4.92-1.17,7.59h-18.43c.84-28.42,16.06-67.61,40.13-93.7,1.67,1.42,3.34,2.86,4.83,4.12,2.16-2.45,4.31-4.89,6.7-7.6-.91-.34-1.97-.74-3.6-1.35,28.04-29.21,62.39-42.65,102.02-45.53v19.39Z"/><path class="b" d="m408.79,290.82c.54,37.3-12.09,69.02-36.62,98.24-1.73-4-2.96-6.71-4.05-9.48-.29-.74.14-1.82-.24-2.45-4.18-7.04-.13-12.28,3.44-17.91,8.95-14.09,14.3-29.61,17.3-45.98.11-.62-.04-1.29-.11-2.65-2.22,0-4.33,0-6.43,0-31.49.01-62.97.05-94.46.02-10.99,0-8.74.29-8.92-8.69-.07-3.62-.01-7.24-.01-11.09h130.09Z"/><path class="b" d="m423.6,125.08c-8.42,7.9-17,15.74-25.28,23.9-1.3,1.28-1.89,4.08-1.61,6.01.86,5.92-1.13,11.27-5.77,13.76-4.65,2.49-10.66,1.81-14.45-1.64-4.21-3.83-5.53-10.05-3.18-15.04,2.5-5.31,7.09-8.08,13.08-6.59,4.16,1.04,6.41-.45,8.94-3.18,7.34-7.92,14.84-15.69,22.55-23.8-5.55-13.89-2.15-27.44,9.2-34.35,10.41-6.33,24.88-4.25,32.39,4.67,8.48,10.07,8.51,23.91.06,33.89-8.88,10.49-21.11,11.36-35.93,2.37Z"/><path class="b" d="m142.78,402.87c-1.88,4.15-3.75,8.3-5.63,12.45-4.05,2.19-8.13,3.74-12.81,1.65-.7-.31-2.21.34-2.9,1.01-8.02,7.75-15.81,15.72-23.97,23.32-2.84,2.64-2.21,4.93-1.24,7.95,5.87,18.31-9.74,36.63-28.21,33.24-9.75-1.79-18.67-10.44-20.7-20.06-2.11-10.02,2.44-21.07,10.94-26.57,9.05-5.85,20.31-5.62,29.07.59.54.38,1.08.75,2.22,1.53,1.82-1.73,3.68-3.49,5.53-5.26,6.63-6.31,13.34-12.54,19.79-19.03,1.29-1.3,2.24-3.64,2.18-5.46-.2-6.6,2.31-10.96,8.28-13.22,5.32-2.01,10.92-.36,14.71,4.36.93,1.15,1.82,2.33,2.73,3.5Z"/><path class="b" d="m415.31,283.75c0-5.1-.17-10.08.13-15.03.06-1.06,1.76-2.82,2.79-2.88,5.11-.3,10.25-.14,15.8-.14.19,3.77.37,7.34.58,11.55,8.11,0,15.88.18,23.63-.19,1.15-.05,2.61-2.5,3.21-4.11,5.76-15.52,22.66-22.58,36.52-15.15,9.48,5.08,14.94,16.78,12.84,27.54-1.94,9.98-11.67,18.87-21.82,19.95-11.65,1.24-22.31-4.8-26.57-16.02-1.57-4.13-3.54-5.02-7.49-4.96-12.64.19-25.29.03-37.93-.01-.31,0-.62-.19-1.68-.54Z"/><path class="b" d="m363.3,169.61c-1.32,2.02-2.12,3.25-2.22,3.42,2.23,4.73,4.82,8.58,5.74,12.79.53,2.46-1.05,5.9-2.66,8.2-3.87,5.51-6.25-2.02-11.89-5.52-6.56-4.07-12.39-1.11-8.65-10.1-24.2-19.54-51.71-30.68-83.36-31.85v-19.74c39.46,2.1,73.54,16.3,103.05,42.79Z"/><path class="b" d="m350.02,391.18c4.18-.53,8.37-1.07,13.45-1.72.74.91,2.18,2.7,4.02,4.97-29.92,28.64-65.43,43.6-107.45,45.9v-19.11c15.99-.69,31.39-3.54,46.29-8.99,14.88-5.45,27.84-14,39.56-23.22-1.66-3.9-3.76-7.44-4.56-11.25-.48-2.3.59-5.3,1.83-7.49,2.6-4.59,9.18-6.29,14.65-4.34,4.9,1.75,8.07,6.74,7.75,12.17-.38,6.42-4.23,9.31-15.69,11.8.05.43.1.85.14,1.28Z"/><path class="b" d="m279.09,284.07v-18.06h129.15v18.06h-129.15Z"/><path class="b" d="m259.95,99.95h-6.75c0-1.67,0-3.42,0-5.17,0-13.16-.12-26.32.05-39.48.04-3.47-.86-5.09-4.43-6.3-18.41-6.29-24.14-28.82-10.91-41.95,6.86-6.81,18.69-9,27.9-5.18,9.41,3.91,14.64,11.96,14.53,22.35-.12,11.12-6.49,21.27-16.26,24.7-3.39,1.19-4.21,2.7-4.17,5.99.16,13.16.06,26.32.05,39.48,0,1.79,0,3.58,0,5.56Z"/><path class="b" d="m260.36,120.05v-17.33c24.46-6.45,95.61,21.47,111.99,42.88-1.29,7.5-2.38,13.8-3.61,20.93-30.61-29-66.59-44.06-108.38-46.48Z"/><path class="b" d="m145.63,167c-1.65-7.06-3.18-12.74-4.16-18.52-.22-1.3,1.17-3.27,2.35-4.34,12.83-11.62,27.4-20.61,43.26-27.37,19.28-8.2,39.41-13.11,60.36-14.68,4.25-.32,5.7.85,5.37,5.09-.32,4.12-.07,8.28-.07,13.22-41.83,1.93-77.44,17.89-107.12,46.6Z"/><path class="b" d="m415.55,290.95h17.95c5.48,25.63-19.09,95.22-38.4,108.01-3.37-5.61-8.44-8.66-16.07-8.29,24.79-29.19,35.68-62.52,36.52-99.72Z"/><path class="b" d="m102.28,277.96h18.66c-.4,33.16,7.85,63.73,27.79,90.52-2.23,5.95-4.43,11.83-6.63,17.71-.69-.03-1.37-.06-2.06-.09-26.85-30.74-39.01-66.74-37.75-108.14Z"/><path class="b" d="m252.67,422.06v18.03c-42.51-1.08-77.24-18.77-107.73-46.55,2.66-4.02,4.95-5.61,9.39-3.43,2.68,1.31,6.93,1.61,9.53.38,4.49-2.14,7.1-.11,10.08,2.25,15.94,12.6,34.03,20.75,53.73,25.25,8.07,1.84,16.36,2.71,24.99,4.09Z"/><path class="b" d="m171.84,377.53c-.05,7.09-4.92,11.99-11.92,11.99-6.81,0-12.46-5.55-12.51-12.28-.05-6.33,5.74-12.08,12.19-12.1,6.96-.01,12.29,5.38,12.25,12.39Z"/><circle class="c" cx="154.72" cy="379.87" r="14.31"/><circle class="c" cx="357.97" cy="379.87" r="14.31"/><circle class="c" cx="380.5" cy="402.74" r="14.31"/><circle class="c" cx="256.75" cy="461.19" r="14.31"/><circle class="c" cx="360.42" cy="184.54" r="14.31"/><circle class="c" cx="381.23" cy="160.73" r="14.31"/><circle class="c" cx="155.75" cy="187.07" r="14.31"/><circle class="c" cx="129.04" cy="158.46" r="14.31"/><circle class="c" cx="128.48" cy="406.65" r="14.31"/></svg>